<svg xmlns="http://www.w3.org/2000/svg" height="40" viewBox="0 96 960 960" width="40" style="fill: white"><path d="M456 912q-50 0-85-35t-35-85h72q0 20 13.8 34t34.2 14q20.4 0 34.2-13.8Q504 812.4 504 792q0-20.4-13.8-34.2Q476.4 744 456 744H96v-72h360q50 0 85 35t35 85q0 50-35 85t-85 35ZM96 504v-72h540q25 0 42.5-17.5T696 372q0-25-17.5-42.5T636 312q-25 0-42.5 17.5T576 372h-72q0-55 38.5-93.5T636 240q55 0 93.5 38.5T768 372q0 55-38.5 93.5T636 504H96Zm636 312v-72q25 0 42.5-17.5T792 684q0-25-17.5-42.5T731.948 624H96v-72h636q55 0 93.5 38.5T864 684q0 55-38.5 93.5T732 816Z"/></svg>