<svg xmlns="http://www.w3.org/2000/svg" height="40" viewBox="0 96 960 960" width="40" style="fill: white"><path d="M576 792q20 0 34-14t14-34q0-20-14-34t-34-14q-20 0-34 14t-14 34q0 20 14 34t34 14Zm-189 0 237-237-51-51-237 237 51 51Zm-3-192q20 0 34-14t14-34q0-20-14-34t-34-14q-20 0-34 14t-14 34q0 20 14 34t34 14Zm96 360q-130 0-221-91t-91-221q0-97 74.5-205T480 192q166 150 239 257t73 199.5Q792 778 701 869t-221 91Zm0-72q100 0 170-70t70-169.867Q720 580 666 499q-54-81-186-212-132 131-186 212t-54 149.133Q240 748 310 818q70 70 170 70Zm0-312Z"/></svg>