<svg xmlns="http://www.w3.org/2000/svg" height="40" viewBox="0 96 960 960" width="40" style="fill: white"><path d="M444 288V144h72v144h-72Zm265 112-54-52 104-102 52 50-102 104Zm59 212v-72h144v72H768Zm-324 396V864h72v144h-72ZM251 398 147 296l54-50 101 101-51 51Zm509 511L659 804l50-50 104 100-53 55ZM48 612v-72h144v72H48Zm152 297-51-53 102-100 25 24 24 25-100 104Zm280-93q-100 0-170-70t-70-170q0-100 70-170t170-70q100 0 170 70t70 170q0 100-70 170t-170 70Zm0-72q70 0 119-49t49-119q0-70-49-119t-119-49q-70 0-119 49t-49 119q0 70 49 119t119 49Zm0-168Z"/></svg>